<?xml version="1.0" standalone="no"?>
<!DOCTYPE svg PUBLIC "-//W3C//DTD SVG 20010904//EN"
 "http://www.w3.org/TR/2001/REC-SVG-20010904/DTD/svg10.dtd">
<svg version="1.0" xmlns="http://www.w3.org/2000/svg"
 width="152.000000pt" height="152.000000pt" viewBox="0 0 152.000000 152.000000"
 preserveAspectRatio="xMidYMid meet">
<metadata>
Created by potrace 1.11, written by Peter Selinger 2001-2013
</metadata>
<g transform="translate(0.000000,152.000000) scale(0.100000,-0.100000)"
fill="#000000" stroke="none">
<path d="M655 1469 c-55 -5 -132 -19 -171 -30 l-72 -21 -45 -87 c-25 -47 -48
-97 -52 -111 -7 -23 -113 -190 -121 -190 -2 0 -22 36 -44 79 -22 44 -44 82
-50 86 -18 11 -11 -55 19 -184 31 -133 31 -123 -14 -270 -30 -98 -34 -223 -10
-314 32 -123 16 -209 -50 -264 -45 -37 -45 -38 -45 -100 l0 -63 267 0 c146 0
263 3 260 7 -4 3 -1 13 6 21 10 13 8 14 -23 8 -76 -17 -115 -24 -118 -22 -1 2
26 15 60 30 88 38 98 49 98 109 0 79 14 44 21 -49 6 -98 19 -121 43 -74 14 30
14 31 -1 19 -15 -12 -16 -12 -9 6 5 11 11 30 13 42 7 32 18 29 34 -9 7 -18 22
-45 33 -60 19 -28 21 -28 128 -28 l108 0 1 58 c0 31 5 66 10 77 6 13 7 -6 3
-57 l-6 -78 296 0 296 0 -1 252 -1 251 -38 46 c-20 25 -48 71 -61 101 -24 54
-24 87 -1 150 3 8 7 27 9 42 1 15 12 54 24 85 32 90 59 197 51 205 -13 13 -28
-5 -77 -90 -38 -67 -50 -81 -61 -71 -8 6 -14 18 -14 25 0 8 -7 14 -15 14 -8 0
-15 1 -15 3 0 1 -9 49 -20 107 -26 136 -55 222 -83 248 -39 37 -117 64 -256
88 -145 26 -152 26 -306 13z m-66 -33 c-2 -2 -33 -12 -69 -21 -36 -9 -76 -26
-89 -38 l-24 -22 17 27 c17 26 50 42 106 51 37 6 64 8 59 3z m576 -57 c47 -22
52 -28 73 -88 30 -85 22 -104 -9 -22 -24 62 -25 63 -101 102 -43 22 -78 41
-78 43 0 8 68 -12 115 -35z m-789 -95 c-14 -27 -26 -43 -26 -35 0 16 42 93 48
87 2 -2 -8 -26 -22 -52z m-43 -101 c-9 -24 -53 -88 -53 -78 0 10 49 95 55 95
2 0 1 -8 -2 -17z m-189 -132 c9 -40 16 -83 16 -95 -1 -39 -17 5 -29 79 -7 39
-14 79 -18 90 -3 13 -2 17 5 10 5 -5 17 -43 26 -84z m975 -12 c19 -59 24 -96
24 -184 1 -62 -4 -126 -11 -146 -7 -20 -17 -61 -22 -92 -13 -79 -68 -206 -104
-239 -17 -16 -67 -51 -112 -78 -114 -70 -137 -69 -245 11 -101 75 -132 107
-125 132 2 10 -11 64 -30 119 -29 88 -34 115 -34 199 0 88 2 97 20 102 11 3
23 1 26 -5 4 -6 10 -6 16 0 8 8 110 -8 201 -33 21 -6 27 -4 27 9 0 10 9 16 28
17 104 5 160 23 204 65 33 32 38 35 29 14 l-12 -25 20 25 c24 29 51 114 51
160 0 53 23 29 49 -51z m339 -34 c-17 -50 -35 -94 -39 -99 -16 -18 -10 14 15
77 14 34 30 75 36 91 6 16 12 27 15 25 2 -3 -10 -45 -27 -94z m-1175 48 c4 -4
-4 -19 -19 -34 -31 -32 -30 -72 2 -77 18 -3 22 -12 27 -55 4 -29 10 -71 13
-94 l7 -42 -37 6 c-40 6 -47 -8 -25 -50 16 -30 30 -38 57 -32 17 4 24 0 32
-20 12 -31 30 -33 31 -2 0 21 1 21 9 2 13 -31 12 -48 -4 -42 -7 3 -18 1 -24
-5 -8 -8 -25 -3 -59 18 -62 38 -101 112 -116 221 -10 75 -9 80 18 133 15 30
32 61 37 68 11 13 40 16 51 5z m-3 -63 c0 -5 -5 -10 -11 -10 -5 0 -7 5 -4 10
3 6 8 10 11 10 2 0 4 -4 4 -10z m1070 -37 c8 -16 22 -39 31 -53 30 -44 22
-131 -18 -217 -35 -72 -60 -91 -43 -33 8 27 6 30 -14 30 -42 0 -59 -36 -31
-64 14 -14 12 -17 -24 -36 -22 -11 -43 -20 -46 -20 -14 0 -2 37 19 59 30 33
68 179 73 284 4 65 7 77 22 77 10 0 24 -12 31 -27z m-1215 -213 c-30 -87 -34
-222 -10 -310 28 -106 28 -105 17 -95 -19 18 -52 160 -52 223 0 63 29 202 50
242 22 41 20 13 -5 -60z m316 -159 c27 -22 21 -36 -10 -26 -26 8 -49 45 -27
45 7 0 24 -9 37 -19z m-31 -70 c-1 -11 -50 50 -50 62 0 6 11 -4 25 -23 14 -19
25 -36 25 -39z m110 -141 c0 -5 -4 -10 -10 -10 -5 0 -14 -9 -20 -20 -11 -20
-9 -21 32 -19 33 2 52 -3 76 -21 36 -26 40 -32 16 -23 -10 4 -17 -1 -21 -16
-7 -29 -33 -26 -75 7 -71 56 -69 54 -40 85 27 28 42 34 42 17z m474 -80 c7
-24 6 -24 -8 -6 -9 11 -16 27 -16 35 0 21 16 2 24 -29z m-868 -45 c-6 -32 -44
-90 -53 -82 -2 3 5 20 16 38 11 18 24 54 28 79 5 32 8 38 11 21 2 -13 1 -38
-2 -56z m664 -114 c0 -10 -30 -24 -37 -17 -3 3 -2 9 2 15 8 13 35 15 35 2z"/>
<path d="M929 850 c-24 -19 -24 -19 -2 -20 19 0 53 23 53 36 0 11 -30 2 -51
-16z"/>
<path d="M504 784 c6 -13 25 -28 41 -33 38 -12 175 -19 175 -9 0 25 -90 56
-181 63 -46 3 -46 3 -35 -21z"/>
<path d="M922 767 c-24 -26 -29 -49 -9 -41 8 3 20 -2 27 -11 18 -21 51 -19 57
4 6 23 26 33 49 24 9 -3 14 -13 11 -24 -7 -26 3 -24 32 6 13 15 18 25 10 25
-7 0 -9 3 -6 7 11 10 -63 33 -109 33 -30 0 -46 -6 -62 -23z"/>
<path d="M830 545 c-7 -8 -8 -15 -2 -15 5 0 15 7 22 15 7 8 8 15 2 15 -5 0
-15 -7 -22 -15z"/>
<path d="M715 450 c-17 -7 -14 -9 15 -11 74 -6 140 -4 140 2 0 17 -122 24
-155 9z"/>
<path d="M1320 868 c0 -18 5 -28 15 -28 8 0 15 -8 16 -17 0 -11 3 -13 6 -5 2
7 -5 27 -16 45 l-21 32 0 -27z"/>
</g>
</svg>
